<mxfile host="Electron" modified="2023-10-18T15:56:06.107Z" agent="Mozilla/5.0 (Macintosh; Intel Mac OS X 10_15_7) AppleWebKit/537.36 (KHTML, like Gecko) draw.io/22.0.2 Chrome/114.0.5735.289 Electron/25.8.4 Safari/537.36" etag="X1ivyGNrqgT_8VcwXx66" version="22.0.2" type="device" pages="2">
  <diagram name="Pagina-1" id="v2Bnc0EJtOTVnInQZ7i2">
    <mxGraphModel dx="1960" dy="723" grid="1" gridSize="10" guides="1" tooltips="1" connect="1" arrows="1" fold="1" page="1" pageScale="1" pageWidth="827" pageHeight="1169" math="0" shadow="0">
      <root>
        <mxCell id="0" />
        <mxCell id="1" parent="0" />
        <mxCell id="33DYBO1cx-C6Fu_asY2l-48" value="" style="rounded=0;whiteSpace=wrap;html=1;fillColor=none;dashed=1;dashPattern=1 2;strokeWidth=2;" parent="1" vertex="1">
          <mxGeometry x="30" y="200" width="740" height="110" as="geometry" />
        </mxCell>
        <mxCell id="33DYBO1cx-C6Fu_asY2l-34" value="" style="rounded=0;whiteSpace=wrap;html=1;dashed=1;fillColor=none;strokeWidth=2;dashPattern=1 2;strokeColor=#00CC00;" parent="1" vertex="1">
          <mxGeometry x="40" y="360" width="240" height="350" as="geometry" />
        </mxCell>
        <mxCell id="33DYBO1cx-C6Fu_asY2l-2" value="mil-d-payment-notice-ca" style="image;aspect=fixed;html=1;points=[];align=center;fontSize=12;image=img/lib/azure2/other/Worker_Container_App.svg;" parent="1" vertex="1">
          <mxGeometry x="210" y="212" width="60" height="58.24" as="geometry" />
        </mxCell>
        <mxCell id="33DYBO1cx-C6Fu_asY2l-3" value="mil-d-auth-ca" style="image;aspect=fixed;html=1;points=[];align=center;fontSize=12;image=img/lib/azure2/other/Worker_Container_App.svg;" parent="1" vertex="1">
          <mxGeometry x="50" y="212" width="60" height="58.24" as="geometry" />
        </mxCell>
        <mxCell id="33DYBO1cx-C6Fu_asY2l-4" value="mil-d-fee-calculator-ca" style="image;aspect=fixed;html=1;points=[];align=center;fontSize=12;image=img/lib/azure2/other/Worker_Container_App.svg;" parent="1" vertex="1">
          <mxGeometry x="370" y="212" width="60" height="58.24" as="geometry" />
        </mxCell>
        <mxCell id="33DYBO1cx-C6Fu_asY2l-5" value="mil-d-preset-ca" style="image;aspect=fixed;html=1;points=[];align=center;fontSize=12;image=img/lib/azure2/other/Worker_Container_App.svg;" parent="1" vertex="1">
          <mxGeometry x="530" y="212" width="60" height="58.24" as="geometry" />
        </mxCell>
        <mxCell id="33DYBO1cx-C6Fu_asY2l-6" value="mil-d-idpay-ca" style="image;aspect=fixed;html=1;points=[];align=center;fontSize=12;image=img/lib/azure2/other/Worker_Container_App.svg;" parent="1" vertex="1">
          <mxGeometry x="690" y="212" width="60" height="58.24" as="geometry" />
        </mxCell>
        <mxCell id="33DYBO1cx-C6Fu_asY2l-9" value="" style="image;aspect=fixed;html=1;points=[];align=center;fontSize=12;image=img/lib/azure2/identity/Azure_Active_Directory.svg;" parent="1" vertex="1">
          <mxGeometry x="210" y="54" width="60" height="54.9" as="geometry" />
        </mxCell>
        <mxCell id="33DYBO1cx-C6Fu_asY2l-10" value="mil-d-appl-kv" style="image;aspect=fixed;html=1;points=[];align=center;fontSize=12;image=img/lib/azure2/security/Key_Vaults.svg;" parent="1" vertex="1">
          <mxGeometry x="50" y="51.44999999999999" width="60" height="60" as="geometry" />
        </mxCell>
        <mxCell id="33DYBO1cx-C6Fu_asY2l-12" value="mil-d-evhns" style="image;aspect=fixed;html=1;points=[];align=center;fontSize=12;image=img/lib/azure2/iot/Event_Hubs.svg;" parent="1" vertex="1">
          <mxGeometry x="530" y="55.19999999999999" width="60" height="53.7" as="geometry" />
        </mxCell>
        <mxCell id="33DYBO1cx-C6Fu_asY2l-16" value="mil-d-redis" style="image;aspect=fixed;html=1;points=[];align=center;fontSize=12;image=img/lib/azure2/databases/Cache_Redis.svg;" parent="1" vertex="1">
          <mxGeometry x="370" y="370.76" width="60" height="48.76" as="geometry" />
        </mxCell>
        <mxCell id="33DYBO1cx-C6Fu_asY2l-17" value="" style="endArrow=none;html=1;rounded=0;strokeWidth=2;strokeColor=#FF00FF;" parent="1" source="33DYBO1cx-C6Fu_asY2l-9" target="33DYBO1cx-C6Fu_asY2l-3" edge="1">
          <mxGeometry width="50" height="50" relative="1" as="geometry">
            <mxPoint x="420" y="670" as="sourcePoint" />
            <mxPoint x="379" y="366" as="targetPoint" />
          </mxGeometry>
        </mxCell>
        <mxCell id="33DYBO1cx-C6Fu_asY2l-18" value="" style="endArrow=none;html=1;rounded=0;strokeWidth=2;strokeColor=#FF0000;" parent="1" source="33DYBO1cx-C6Fu_asY2l-3" target="33DYBO1cx-C6Fu_asY2l-10" edge="1">
          <mxGeometry width="50" height="50" relative="1" as="geometry">
            <mxPoint x="430" y="680" as="sourcePoint" />
            <mxPoint x="389" y="376" as="targetPoint" />
          </mxGeometry>
        </mxCell>
        <mxCell id="33DYBO1cx-C6Fu_asY2l-19" value="" style="endArrow=none;html=1;rounded=0;strokeWidth=2;strokeColor=#FF00FF;" parent="1" source="33DYBO1cx-C6Fu_asY2l-6" target="33DYBO1cx-C6Fu_asY2l-9" edge="1">
          <mxGeometry width="50" height="50" relative="1" as="geometry">
            <mxPoint x="440" y="690" as="sourcePoint" />
            <mxPoint x="399" y="386" as="targetPoint" />
          </mxGeometry>
        </mxCell>
        <mxCell id="33DYBO1cx-C6Fu_asY2l-20" value="" style="endArrow=none;html=1;rounded=0;strokeWidth=2;strokeColor=#FF0000;" parent="1" source="33DYBO1cx-C6Fu_asY2l-6" target="33DYBO1cx-C6Fu_asY2l-10" edge="1">
          <mxGeometry width="50" height="50" relative="1" as="geometry">
            <mxPoint x="450" y="700" as="sourcePoint" />
            <mxPoint x="409" y="396" as="targetPoint" />
          </mxGeometry>
        </mxCell>
        <mxCell id="33DYBO1cx-C6Fu_asY2l-21" value="" style="endArrow=none;html=1;rounded=0;strokeWidth=2;strokeColor=#00CC00;" parent="1" source="33DYBO1cx-C6Fu_asY2l-30" target="33DYBO1cx-C6Fu_asY2l-2" edge="1">
          <mxGeometry width="50" height="50" relative="1" as="geometry">
            <mxPoint x="460" y="232" as="sourcePoint" />
            <mxPoint x="402" y="300" as="targetPoint" />
          </mxGeometry>
        </mxCell>
        <mxCell id="33DYBO1cx-C6Fu_asY2l-22" value="" style="endArrow=none;html=1;rounded=0;strokeWidth=2;strokeColor=#00CC00;" parent="1" source="33DYBO1cx-C6Fu_asY2l-30" target="33DYBO1cx-C6Fu_asY2l-4" edge="1">
          <mxGeometry width="50" height="50" relative="1" as="geometry">
            <mxPoint x="470" y="242" as="sourcePoint" />
            <mxPoint x="412" y="310" as="targetPoint" />
          </mxGeometry>
        </mxCell>
        <mxCell id="33DYBO1cx-C6Fu_asY2l-24" value="" style="endArrow=none;html=1;rounded=0;strokeWidth=2;strokeColor=#FF8000;exitX=1;exitY=0.5;exitDx=0;exitDy=0;edgeStyle=orthogonalEdgeStyle;" parent="1" source="33DYBO1cx-C6Fu_asY2l-41" target="33DYBO1cx-C6Fu_asY2l-6" edge="1">
          <mxGeometry width="50" height="50" relative="1" as="geometry">
            <mxPoint x="490" y="650" as="sourcePoint" />
            <mxPoint x="432" y="330" as="targetPoint" />
          </mxGeometry>
        </mxCell>
        <mxCell id="33DYBO1cx-C6Fu_asY2l-25" value="" style="endArrow=none;html=1;rounded=0;strokeWidth=2;strokeColor=#999999;" parent="1" source="33DYBO1cx-C6Fu_asY2l-5" target="33DYBO1cx-C6Fu_asY2l-12" edge="1">
          <mxGeometry width="50" height="50" relative="1" as="geometry">
            <mxPoint x="500" y="272" as="sourcePoint" />
            <mxPoint x="442" y="340" as="targetPoint" />
          </mxGeometry>
        </mxCell>
        <mxCell id="33DYBO1cx-C6Fu_asY2l-26" value="" style="endArrow=none;html=1;rounded=0;strokeWidth=2;strokeColor=#999999;" parent="1" source="33DYBO1cx-C6Fu_asY2l-2" target="33DYBO1cx-C6Fu_asY2l-12" edge="1">
          <mxGeometry width="50" height="50" relative="1" as="geometry">
            <mxPoint x="510" y="282" as="sourcePoint" />
            <mxPoint x="452" y="350" as="targetPoint" />
          </mxGeometry>
        </mxCell>
        <mxCell id="33DYBO1cx-C6Fu_asY2l-28" value="" style="endArrow=none;html=1;rounded=0;strokeWidth=2;strokeColor=#FF8000;exitX=0;exitY=0.5;exitDx=0;exitDy=0;edgeStyle=orthogonalEdgeStyle;" parent="1" source="33DYBO1cx-C6Fu_asY2l-38" target="33DYBO1cx-C6Fu_asY2l-2" edge="1">
          <mxGeometry width="50" height="50" relative="1" as="geometry">
            <mxPoint x="530" y="302" as="sourcePoint" />
            <mxPoint x="472" y="370" as="targetPoint" />
            <Array as="points">
              <mxPoint x="480" y="460" />
              <mxPoint x="480" y="320" />
              <mxPoint x="240" y="320" />
            </Array>
          </mxGeometry>
        </mxCell>
        <mxCell id="33DYBO1cx-C6Fu_asY2l-29" value="" style="endArrow=none;html=1;rounded=0;strokeWidth=2;strokeColor=#0000FF;" parent="1" source="33DYBO1cx-C6Fu_asY2l-2" target="33DYBO1cx-C6Fu_asY2l-16" edge="1">
          <mxGeometry width="50" height="50" relative="1" as="geometry">
            <mxPoint x="540" y="312" as="sourcePoint" />
            <mxPoint x="482" y="380" as="targetPoint" />
          </mxGeometry>
        </mxCell>
        <mxCell id="33DYBO1cx-C6Fu_asY2l-30" value="acquirers" style="image;aspect=fixed;html=1;points=[];align=center;fontSize=12;image=img/lib/azure2/general/Storage_Container.svg;" parent="1" vertex="1">
          <mxGeometry x="210" y="370.76" width="60" height="48.76" as="geometry" />
        </mxCell>
        <mxCell id="33DYBO1cx-C6Fu_asY2l-31" value="roles" style="image;aspect=fixed;html=1;points=[];align=center;fontSize=12;image=img/lib/azure2/general/Storage_Container.svg;" parent="1" vertex="1">
          <mxGeometry x="50" y="493.15" width="60" height="48.76" as="geometry" />
        </mxCell>
        <mxCell id="33DYBO1cx-C6Fu_asY2l-33" value="users&lt;br&gt;(temp)" style="image;aspect=fixed;html=1;points=[];align=center;fontSize=12;image=img/lib/azure2/general/Storage_Container.svg;" parent="1" vertex="1">
          <mxGeometry x="50" y="617.15" width="60" height="48.76" as="geometry" />
        </mxCell>
        <mxCell id="33DYBO1cx-C6Fu_asY2l-35" value="" style="endArrow=none;html=1;rounded=0;strokeWidth=2;strokeColor=#00CC00;edgeStyle=orthogonalEdgeStyle;" parent="1" source="33DYBO1cx-C6Fu_asY2l-31" target="33DYBO1cx-C6Fu_asY2l-3" edge="1">
          <mxGeometry width="50" height="50" relative="1" as="geometry">
            <mxPoint x="225" y="383" as="sourcePoint" />
            <mxPoint x="120" y="280" as="targetPoint" />
            <Array as="points">
              <mxPoint x="130" y="518" />
              <mxPoint x="130" y="241" />
            </Array>
          </mxGeometry>
        </mxCell>
        <mxCell id="33DYBO1cx-C6Fu_asY2l-36" value="" style="endArrow=none;html=1;rounded=0;strokeWidth=2;strokeColor=#00CC00;" parent="1" source="33DYBO1cx-C6Fu_asY2l-32" target="33DYBO1cx-C6Fu_asY2l-3" edge="1">
          <mxGeometry width="50" height="50" relative="1" as="geometry">
            <mxPoint x="235" y="393" as="sourcePoint" />
            <mxPoint x="130" y="290" as="targetPoint" />
          </mxGeometry>
        </mxCell>
        <mxCell id="33DYBO1cx-C6Fu_asY2l-37" value="" style="endArrow=none;html=1;rounded=0;strokeWidth=2;strokeColor=#00CC00;edgeStyle=orthogonalEdgeStyle;" parent="1" source="33DYBO1cx-C6Fu_asY2l-33" target="33DYBO1cx-C6Fu_asY2l-3" edge="1">
          <mxGeometry width="50" height="50" relative="1" as="geometry">
            <mxPoint x="108" y="617" as="sourcePoint" />
            <mxPoint x="82" y="270" as="targetPoint" />
            <Array as="points">
              <mxPoint x="150" y="642" />
              <mxPoint x="150" y="241" />
            </Array>
          </mxGeometry>
        </mxCell>
        <mxCell id="33DYBO1cx-C6Fu_asY2l-32" value="clients" style="image;aspect=fixed;html=1;points=[];align=center;fontSize=12;image=img/lib/azure2/general/Storage_Container.svg;" parent="1" vertex="1">
          <mxGeometry x="50" y="370.75999999999993" width="60" height="48.76" as="geometry" />
        </mxCell>
        <mxCell id="33DYBO1cx-C6Fu_asY2l-39" value="presets" style="rounded=0;whiteSpace=wrap;html=1;fontSize=10;" parent="1" vertex="1">
          <mxGeometry x="500" y="410" width="120" height="20" as="geometry" />
        </mxCell>
        <mxCell id="33DYBO1cx-C6Fu_asY2l-40" value="subscribers" style="rounded=0;whiteSpace=wrap;html=1;fontSize=10;" parent="1" vertex="1">
          <mxGeometry x="500" y="370.76" width="120" height="20" as="geometry" />
        </mxCell>
        <mxCell id="33DYBO1cx-C6Fu_asY2l-41" value="idpayTransactions" style="rounded=0;whiteSpace=wrap;html=1;fontSize=10;" parent="1" vertex="1">
          <mxGeometry x="500" y="490" width="120" height="20" as="geometry" />
        </mxCell>
        <mxCell id="33DYBO1cx-C6Fu_asY2l-44" value="" style="endArrow=none;html=1;rounded=0;strokeWidth=2;strokeColor=#FF8000;" parent="1" source="33DYBO1cx-C6Fu_asY2l-5" target="33DYBO1cx-C6Fu_asY2l-40" edge="1">
          <mxGeometry width="50" height="50" relative="1" as="geometry">
            <mxPoint x="561" y="270" as="sourcePoint" />
            <mxPoint x="670" y="340" as="targetPoint" />
          </mxGeometry>
        </mxCell>
        <mxCell id="33DYBO1cx-C6Fu_asY2l-45" value="" style="endArrow=none;html=1;rounded=0;strokeWidth=2;strokeColor=#FF8000;edgeStyle=orthogonalEdgeStyle;entryX=1;entryY=0.5;entryDx=0;entryDy=0;" parent="1" source="33DYBO1cx-C6Fu_asY2l-5" target="33DYBO1cx-C6Fu_asY2l-39" edge="1">
          <mxGeometry width="50" height="50" relative="1" as="geometry">
            <mxPoint x="560" y="270" as="sourcePoint" />
            <mxPoint x="670" y="430" as="targetPoint" />
            <Array as="points">
              <mxPoint x="640" y="241" />
              <mxPoint x="640" y="420" />
            </Array>
          </mxGeometry>
        </mxCell>
        <mxCell id="33DYBO1cx-C6Fu_asY2l-38" value="paymentTransactions" style="rounded=0;whiteSpace=wrap;html=1;fontSize=10;" parent="1" vertex="1">
          <mxGeometry x="500" y="450" width="120" height="20" as="geometry" />
        </mxCell>
        <mxCell id="33DYBO1cx-C6Fu_asY2l-46" value="" style="rounded=0;whiteSpace=wrap;html=1;dashed=1;fillColor=none;strokeWidth=2;dashPattern=1 2;strokeColor=#FF8000;" parent="1" vertex="1">
          <mxGeometry x="490" y="360" width="140" height="170" as="geometry" />
        </mxCell>
        <mxCell id="Dy-He1JgFN_HiCvZMUvM-1" value="mil-d-apim" style="image;aspect=fixed;html=1;points=[];align=center;fontSize=12;image=img/lib/azure2/integration/API_Management_Services.svg;" parent="1" vertex="1">
          <mxGeometry x="-170" y="227.3" width="60" height="55.4" as="geometry" />
        </mxCell>
        <mxCell id="Dy-He1JgFN_HiCvZMUvM-2" value="" style="endArrow=none;html=1;rounded=0;entryX=0;entryY=0.5;entryDx=0;entryDy=0;strokeWidth=2;" parent="1" source="Dy-He1JgFN_HiCvZMUvM-1" target="33DYBO1cx-C6Fu_asY2l-48" edge="1">
          <mxGeometry width="50" height="50" relative="1" as="geometry">
            <mxPoint x="70" y="250" as="sourcePoint" />
            <mxPoint x="120" y="200" as="targetPoint" />
          </mxGeometry>
        </mxCell>
        <mxCell id="Dy-He1JgFN_HiCvZMUvM-3" value="mil-d-kv" style="image;aspect=fixed;html=1;points=[];align=center;fontSize=12;image=img/lib/azure2/security/Key_Vaults.svg;" parent="1" vertex="1">
          <mxGeometry x="-170" y="52.04999999999999" width="60" height="60" as="geometry" />
        </mxCell>
        <mxCell id="Dy-He1JgFN_HiCvZMUvM-4" value="" style="endArrow=none;html=1;rounded=0;strokeWidth=2;" parent="1" source="Dy-He1JgFN_HiCvZMUvM-1" target="Dy-He1JgFN_HiCvZMUvM-3" edge="1">
          <mxGeometry width="50" height="50" relative="1" as="geometry">
            <mxPoint x="-100" y="265" as="sourcePoint" />
            <mxPoint x="40" y="265" as="targetPoint" />
          </mxGeometry>
        </mxCell>
        <mxCell id="33DYBO1cx-C6Fu_asY2l-15" value="mil-d-cosmos" style="image;aspect=fixed;html=1;points=[];align=center;fontSize=10;image=img/lib/azure2/databases/Azure_Cosmos_DB.svg;" parent="1" vertex="1">
          <mxGeometry x="615" y="516" width="30" height="30" as="geometry" />
        </mxCell>
        <mxCell id="33DYBO1cx-C6Fu_asY2l-11" value="mildconfst" style="image;aspect=fixed;html=1;points=[];align=center;fontSize=10;image=img/lib/azure2/storage/Storage_Accounts.svg;" parent="1" vertex="1">
          <mxGeometry x="265" y="699" width="30" height="24" as="geometry" />
        </mxCell>
        <mxCell id="33DYBO1cx-C6Fu_asY2l-47" value="mil-d-cae" style="image;aspect=fixed;html=1;points=[];align=center;fontSize=10;image=img/lib/azure2/other/Container_App_Environments.svg;" parent="1" vertex="1">
          <mxGeometry x="753" y="293" width="34" height="34" as="geometry" />
        </mxCell>
      </root>
    </mxGraphModel>
  </diagram>
  <diagram name="Copia di Pagina-1" id="Ar1JGzjTa4skvhXCnvAE">
    <mxGraphModel dx="2191" dy="768" grid="1" gridSize="10" guides="1" tooltips="1" connect="1" arrows="1" fold="1" page="1" pageScale="1" pageWidth="827" pageHeight="1169" math="0" shadow="0">
      <root>
        <mxCell id="oj1FwXV7FWK7mrdtSQMY-0" />
        <mxCell id="oj1FwXV7FWK7mrdtSQMY-1" parent="oj1FwXV7FWK7mrdtSQMY-0" />
        <mxCell id="oj1FwXV7FWK7mrdtSQMY-2" value="" style="rounded=0;whiteSpace=wrap;html=1;fillColor=none;dashed=1;dashPattern=1 2;strokeWidth=2;" vertex="1" parent="oj1FwXV7FWK7mrdtSQMY-1">
          <mxGeometry x="30" y="200" width="740" height="110" as="geometry" />
        </mxCell>
        <mxCell id="oj1FwXV7FWK7mrdtSQMY-3" value="" style="rounded=0;whiteSpace=wrap;html=1;dashed=1;fillColor=none;strokeWidth=2;dashPattern=1 2;strokeColor=#00CC00;" vertex="1" parent="oj1FwXV7FWK7mrdtSQMY-1">
          <mxGeometry x="40" y="360" width="240" height="350" as="geometry" />
        </mxCell>
        <mxCell id="oj1FwXV7FWK7mrdtSQMY-4" value="mil-d-payment-notice-ca" style="image;aspect=fixed;html=1;points=[];align=center;fontSize=12;image=img/lib/azure2/other/Worker_Container_App.svg;" vertex="1" parent="oj1FwXV7FWK7mrdtSQMY-1">
          <mxGeometry x="210" y="212" width="60" height="58.24" as="geometry" />
        </mxCell>
        <mxCell id="oj1FwXV7FWK7mrdtSQMY-5" value="mil-d-auth-ca" style="image;aspect=fixed;html=1;points=[];align=center;fontSize=12;image=img/lib/azure2/other/Worker_Container_App.svg;" vertex="1" parent="oj1FwXV7FWK7mrdtSQMY-1">
          <mxGeometry x="50" y="212" width="60" height="58.24" as="geometry" />
        </mxCell>
        <mxCell id="oj1FwXV7FWK7mrdtSQMY-6" value="mil-d-fee-calculator-ca" style="image;aspect=fixed;html=1;points=[];align=center;fontSize=12;image=img/lib/azure2/other/Worker_Container_App.svg;" vertex="1" parent="oj1FwXV7FWK7mrdtSQMY-1">
          <mxGeometry x="370" y="212" width="60" height="58.24" as="geometry" />
        </mxCell>
        <mxCell id="oj1FwXV7FWK7mrdtSQMY-7" value="mil-d-preset-ca" style="image;aspect=fixed;html=1;points=[];align=center;fontSize=12;image=img/lib/azure2/other/Worker_Container_App.svg;" vertex="1" parent="oj1FwXV7FWK7mrdtSQMY-1">
          <mxGeometry x="530" y="212" width="60" height="58.24" as="geometry" />
        </mxCell>
        <mxCell id="oj1FwXV7FWK7mrdtSQMY-8" value="mil-d-idpay-ca" style="image;aspect=fixed;html=1;points=[];align=center;fontSize=12;image=img/lib/azure2/other/Worker_Container_App.svg;" vertex="1" parent="oj1FwXV7FWK7mrdtSQMY-1">
          <mxGeometry x="690" y="212" width="60" height="58.24" as="geometry" />
        </mxCell>
        <mxCell id="oj1FwXV7FWK7mrdtSQMY-9" value="" style="image;aspect=fixed;html=1;points=[];align=center;fontSize=12;image=img/lib/azure2/identity/Azure_Active_Directory.svg;" vertex="1" parent="oj1FwXV7FWK7mrdtSQMY-1">
          <mxGeometry x="210" y="54" width="60" height="54.9" as="geometry" />
        </mxCell>
        <mxCell id="oj1FwXV7FWK7mrdtSQMY-10" value="mil-d-appl-kv" style="image;aspect=fixed;html=1;points=[];align=center;fontSize=12;image=img/lib/azure2/security/Key_Vaults.svg;" vertex="1" parent="oj1FwXV7FWK7mrdtSQMY-1">
          <mxGeometry x="50" y="51.44999999999999" width="60" height="60" as="geometry" />
        </mxCell>
        <mxCell id="oj1FwXV7FWK7mrdtSQMY-11" value="mil-d-evhns" style="image;aspect=fixed;html=1;points=[];align=center;fontSize=12;image=img/lib/azure2/iot/Event_Hubs.svg;" vertex="1" parent="oj1FwXV7FWK7mrdtSQMY-1">
          <mxGeometry x="530" y="55.19999999999999" width="60" height="53.7" as="geometry" />
        </mxCell>
        <mxCell id="oj1FwXV7FWK7mrdtSQMY-12" value="mil-d-redis" style="image;aspect=fixed;html=1;points=[];align=center;fontSize=12;image=img/lib/azure2/databases/Cache_Redis.svg;" vertex="1" parent="oj1FwXV7FWK7mrdtSQMY-1">
          <mxGeometry x="370" y="370.76" width="60" height="48.76" as="geometry" />
        </mxCell>
        <mxCell id="oj1FwXV7FWK7mrdtSQMY-13" value="" style="endArrow=none;html=1;rounded=0;strokeWidth=2;strokeColor=#FF00FF;" edge="1" parent="oj1FwXV7FWK7mrdtSQMY-1" source="oj1FwXV7FWK7mrdtSQMY-9" target="oj1FwXV7FWK7mrdtSQMY-5">
          <mxGeometry width="50" height="50" relative="1" as="geometry">
            <mxPoint x="420" y="670" as="sourcePoint" />
            <mxPoint x="379" y="366" as="targetPoint" />
          </mxGeometry>
        </mxCell>
        <mxCell id="oj1FwXV7FWK7mrdtSQMY-14" value="" style="endArrow=none;html=1;rounded=0;strokeWidth=2;strokeColor=#FF0000;" edge="1" parent="oj1FwXV7FWK7mrdtSQMY-1" source="oj1FwXV7FWK7mrdtSQMY-5" target="oj1FwXV7FWK7mrdtSQMY-10">
          <mxGeometry width="50" height="50" relative="1" as="geometry">
            <mxPoint x="430" y="680" as="sourcePoint" />
            <mxPoint x="389" y="376" as="targetPoint" />
          </mxGeometry>
        </mxCell>
        <mxCell id="oj1FwXV7FWK7mrdtSQMY-15" value="" style="endArrow=none;html=1;rounded=0;strokeWidth=2;strokeColor=#FF00FF;" edge="1" parent="oj1FwXV7FWK7mrdtSQMY-1" source="oj1FwXV7FWK7mrdtSQMY-8" target="oj1FwXV7FWK7mrdtSQMY-9">
          <mxGeometry width="50" height="50" relative="1" as="geometry">
            <mxPoint x="440" y="690" as="sourcePoint" />
            <mxPoint x="399" y="386" as="targetPoint" />
          </mxGeometry>
        </mxCell>
        <mxCell id="oj1FwXV7FWK7mrdtSQMY-16" value="" style="endArrow=none;html=1;rounded=0;strokeWidth=2;strokeColor=#FF0000;" edge="1" parent="oj1FwXV7FWK7mrdtSQMY-1" source="oj1FwXV7FWK7mrdtSQMY-8" target="oj1FwXV7FWK7mrdtSQMY-10">
          <mxGeometry width="50" height="50" relative="1" as="geometry">
            <mxPoint x="450" y="700" as="sourcePoint" />
            <mxPoint x="409" y="396" as="targetPoint" />
          </mxGeometry>
        </mxCell>
        <mxCell id="oj1FwXV7FWK7mrdtSQMY-17" value="" style="endArrow=none;html=1;rounded=0;strokeWidth=2;strokeColor=#00CC00;" edge="1" parent="oj1FwXV7FWK7mrdtSQMY-1" source="oj1FwXV7FWK7mrdtSQMY-24" target="oj1FwXV7FWK7mrdtSQMY-4">
          <mxGeometry width="50" height="50" relative="1" as="geometry">
            <mxPoint x="460" y="232" as="sourcePoint" />
            <mxPoint x="402" y="300" as="targetPoint" />
          </mxGeometry>
        </mxCell>
        <mxCell id="oj1FwXV7FWK7mrdtSQMY-18" value="" style="endArrow=none;html=1;rounded=0;strokeWidth=2;strokeColor=#00CC00;" edge="1" parent="oj1FwXV7FWK7mrdtSQMY-1" source="oj1FwXV7FWK7mrdtSQMY-24" target="oj1FwXV7FWK7mrdtSQMY-6">
          <mxGeometry width="50" height="50" relative="1" as="geometry">
            <mxPoint x="470" y="242" as="sourcePoint" />
            <mxPoint x="412" y="310" as="targetPoint" />
          </mxGeometry>
        </mxCell>
        <mxCell id="oj1FwXV7FWK7mrdtSQMY-19" value="" style="endArrow=none;html=1;rounded=0;strokeWidth=2;strokeColor=#FF8000;exitX=1;exitY=0.5;exitDx=0;exitDy=0;edgeStyle=orthogonalEdgeStyle;" edge="1" parent="oj1FwXV7FWK7mrdtSQMY-1" source="oj1FwXV7FWK7mrdtSQMY-33" target="oj1FwXV7FWK7mrdtSQMY-8">
          <mxGeometry width="50" height="50" relative="1" as="geometry">
            <mxPoint x="490" y="650" as="sourcePoint" />
            <mxPoint x="432" y="330" as="targetPoint" />
          </mxGeometry>
        </mxCell>
        <mxCell id="oj1FwXV7FWK7mrdtSQMY-20" value="" style="endArrow=none;html=1;rounded=0;strokeWidth=2;strokeColor=#999999;" edge="1" parent="oj1FwXV7FWK7mrdtSQMY-1" source="oj1FwXV7FWK7mrdtSQMY-7" target="oj1FwXV7FWK7mrdtSQMY-11">
          <mxGeometry width="50" height="50" relative="1" as="geometry">
            <mxPoint x="500" y="272" as="sourcePoint" />
            <mxPoint x="442" y="340" as="targetPoint" />
          </mxGeometry>
        </mxCell>
        <mxCell id="oj1FwXV7FWK7mrdtSQMY-21" value="" style="endArrow=none;html=1;rounded=0;strokeWidth=2;strokeColor=#999999;" edge="1" parent="oj1FwXV7FWK7mrdtSQMY-1" source="oj1FwXV7FWK7mrdtSQMY-4" target="oj1FwXV7FWK7mrdtSQMY-11">
          <mxGeometry width="50" height="50" relative="1" as="geometry">
            <mxPoint x="510" y="282" as="sourcePoint" />
            <mxPoint x="452" y="350" as="targetPoint" />
          </mxGeometry>
        </mxCell>
        <mxCell id="oj1FwXV7FWK7mrdtSQMY-22" value="" style="endArrow=none;html=1;rounded=0;strokeWidth=2;strokeColor=#FF8000;exitX=0;exitY=0.5;exitDx=0;exitDy=0;edgeStyle=orthogonalEdgeStyle;" edge="1" parent="oj1FwXV7FWK7mrdtSQMY-1" source="oj1FwXV7FWK7mrdtSQMY-36" target="oj1FwXV7FWK7mrdtSQMY-4">
          <mxGeometry width="50" height="50" relative="1" as="geometry">
            <mxPoint x="530" y="302" as="sourcePoint" />
            <mxPoint x="472" y="370" as="targetPoint" />
            <Array as="points">
              <mxPoint x="480" y="460" />
              <mxPoint x="480" y="320" />
              <mxPoint x="240" y="320" />
            </Array>
          </mxGeometry>
        </mxCell>
        <mxCell id="oj1FwXV7FWK7mrdtSQMY-23" value="" style="endArrow=none;html=1;rounded=0;strokeWidth=2;strokeColor=#0000FF;" edge="1" parent="oj1FwXV7FWK7mrdtSQMY-1" source="oj1FwXV7FWK7mrdtSQMY-4" target="oj1FwXV7FWK7mrdtSQMY-12">
          <mxGeometry width="50" height="50" relative="1" as="geometry">
            <mxPoint x="540" y="312" as="sourcePoint" />
            <mxPoint x="482" y="380" as="targetPoint" />
          </mxGeometry>
        </mxCell>
        <mxCell id="oj1FwXV7FWK7mrdtSQMY-24" value="acquirers" style="image;aspect=fixed;html=1;points=[];align=center;fontSize=12;image=img/lib/azure2/general/Storage_Container.svg;" vertex="1" parent="oj1FwXV7FWK7mrdtSQMY-1">
          <mxGeometry x="210" y="370.76" width="60" height="48.76" as="geometry" />
        </mxCell>
        <mxCell id="oj1FwXV7FWK7mrdtSQMY-25" value="roles" style="image;aspect=fixed;html=1;points=[];align=center;fontSize=12;image=img/lib/azure2/general/Storage_Container.svg;" vertex="1" parent="oj1FwXV7FWK7mrdtSQMY-1">
          <mxGeometry x="50" y="493.15" width="60" height="48.76" as="geometry" />
        </mxCell>
        <mxCell id="oj1FwXV7FWK7mrdtSQMY-26" value="users&lt;br&gt;(temp)" style="image;aspect=fixed;html=1;points=[];align=center;fontSize=12;image=img/lib/azure2/general/Storage_Container.svg;" vertex="1" parent="oj1FwXV7FWK7mrdtSQMY-1">
          <mxGeometry x="50" y="617.15" width="60" height="48.76" as="geometry" />
        </mxCell>
        <mxCell id="oj1FwXV7FWK7mrdtSQMY-27" value="" style="endArrow=none;html=1;rounded=0;strokeWidth=2;strokeColor=#00CC00;edgeStyle=orthogonalEdgeStyle;" edge="1" parent="oj1FwXV7FWK7mrdtSQMY-1" source="oj1FwXV7FWK7mrdtSQMY-25" target="oj1FwXV7FWK7mrdtSQMY-5">
          <mxGeometry width="50" height="50" relative="1" as="geometry">
            <mxPoint x="225" y="383" as="sourcePoint" />
            <mxPoint x="120" y="280" as="targetPoint" />
            <Array as="points">
              <mxPoint x="130" y="518" />
              <mxPoint x="130" y="241" />
            </Array>
          </mxGeometry>
        </mxCell>
        <mxCell id="oj1FwXV7FWK7mrdtSQMY-28" value="" style="endArrow=none;html=1;rounded=0;strokeWidth=2;strokeColor=#00CC00;" edge="1" parent="oj1FwXV7FWK7mrdtSQMY-1" source="oj1FwXV7FWK7mrdtSQMY-30" target="oj1FwXV7FWK7mrdtSQMY-5">
          <mxGeometry width="50" height="50" relative="1" as="geometry">
            <mxPoint x="235" y="393" as="sourcePoint" />
            <mxPoint x="130" y="290" as="targetPoint" />
          </mxGeometry>
        </mxCell>
        <mxCell id="oj1FwXV7FWK7mrdtSQMY-29" value="" style="endArrow=none;html=1;rounded=0;strokeWidth=2;strokeColor=#00CC00;edgeStyle=orthogonalEdgeStyle;" edge="1" parent="oj1FwXV7FWK7mrdtSQMY-1" source="oj1FwXV7FWK7mrdtSQMY-26" target="oj1FwXV7FWK7mrdtSQMY-5">
          <mxGeometry width="50" height="50" relative="1" as="geometry">
            <mxPoint x="108" y="617" as="sourcePoint" />
            <mxPoint x="82" y="270" as="targetPoint" />
            <Array as="points">
              <mxPoint x="150" y="642" />
              <mxPoint x="150" y="241" />
            </Array>
          </mxGeometry>
        </mxCell>
        <mxCell id="oj1FwXV7FWK7mrdtSQMY-30" value="clients" style="image;aspect=fixed;html=1;points=[];align=center;fontSize=12;image=img/lib/azure2/general/Storage_Container.svg;" vertex="1" parent="oj1FwXV7FWK7mrdtSQMY-1">
          <mxGeometry x="50" y="370.75999999999993" width="60" height="48.76" as="geometry" />
        </mxCell>
        <mxCell id="oj1FwXV7FWK7mrdtSQMY-31" value="presets" style="rounded=0;whiteSpace=wrap;html=1;fontSize=10;" vertex="1" parent="oj1FwXV7FWK7mrdtSQMY-1">
          <mxGeometry x="500" y="410" width="120" height="20" as="geometry" />
        </mxCell>
        <mxCell id="oj1FwXV7FWK7mrdtSQMY-32" value="subscribers" style="rounded=0;whiteSpace=wrap;html=1;fontSize=10;" vertex="1" parent="oj1FwXV7FWK7mrdtSQMY-1">
          <mxGeometry x="500" y="370.76" width="120" height="20" as="geometry" />
        </mxCell>
        <mxCell id="oj1FwXV7FWK7mrdtSQMY-33" value="idpayTransactions" style="rounded=0;whiteSpace=wrap;html=1;fontSize=10;" vertex="1" parent="oj1FwXV7FWK7mrdtSQMY-1">
          <mxGeometry x="500" y="490" width="120" height="20" as="geometry" />
        </mxCell>
        <mxCell id="oj1FwXV7FWK7mrdtSQMY-34" value="" style="endArrow=none;html=1;rounded=0;strokeWidth=2;strokeColor=#FF8000;" edge="1" parent="oj1FwXV7FWK7mrdtSQMY-1" source="oj1FwXV7FWK7mrdtSQMY-7" target="oj1FwXV7FWK7mrdtSQMY-32">
          <mxGeometry width="50" height="50" relative="1" as="geometry">
            <mxPoint x="561" y="270" as="sourcePoint" />
            <mxPoint x="670" y="340" as="targetPoint" />
          </mxGeometry>
        </mxCell>
        <mxCell id="oj1FwXV7FWK7mrdtSQMY-35" value="" style="endArrow=none;html=1;rounded=0;strokeWidth=2;strokeColor=#FF8000;edgeStyle=orthogonalEdgeStyle;entryX=1;entryY=0.5;entryDx=0;entryDy=0;" edge="1" parent="oj1FwXV7FWK7mrdtSQMY-1" source="oj1FwXV7FWK7mrdtSQMY-7" target="oj1FwXV7FWK7mrdtSQMY-31">
          <mxGeometry width="50" height="50" relative="1" as="geometry">
            <mxPoint x="560" y="270" as="sourcePoint" />
            <mxPoint x="670" y="430" as="targetPoint" />
            <Array as="points">
              <mxPoint x="640" y="241" />
              <mxPoint x="640" y="420" />
            </Array>
          </mxGeometry>
        </mxCell>
        <mxCell id="oj1FwXV7FWK7mrdtSQMY-36" value="paymentTransactions" style="rounded=0;whiteSpace=wrap;html=1;fontSize=10;" vertex="1" parent="oj1FwXV7FWK7mrdtSQMY-1">
          <mxGeometry x="500" y="450" width="120" height="20" as="geometry" />
        </mxCell>
        <mxCell id="oj1FwXV7FWK7mrdtSQMY-37" value="" style="rounded=0;whiteSpace=wrap;html=1;dashed=1;fillColor=none;strokeWidth=2;dashPattern=1 2;strokeColor=#FF8000;" vertex="1" parent="oj1FwXV7FWK7mrdtSQMY-1">
          <mxGeometry x="490" y="360" width="140" height="170" as="geometry" />
        </mxCell>
        <mxCell id="oj1FwXV7FWK7mrdtSQMY-38" value="mil-d-apim" style="image;aspect=fixed;html=1;points=[];align=center;fontSize=12;image=img/lib/azure2/integration/API_Management_Services.svg;" vertex="1" parent="oj1FwXV7FWK7mrdtSQMY-1">
          <mxGeometry x="-170" y="227.3" width="60" height="55.4" as="geometry" />
        </mxCell>
        <mxCell id="oj1FwXV7FWK7mrdtSQMY-39" value="" style="endArrow=none;html=1;rounded=0;entryX=0;entryY=0.5;entryDx=0;entryDy=0;strokeWidth=2;" edge="1" parent="oj1FwXV7FWK7mrdtSQMY-1" source="oj1FwXV7FWK7mrdtSQMY-38" target="oj1FwXV7FWK7mrdtSQMY-2">
          <mxGeometry width="50" height="50" relative="1" as="geometry">
            <mxPoint x="70" y="250" as="sourcePoint" />
            <mxPoint x="120" y="200" as="targetPoint" />
          </mxGeometry>
        </mxCell>
        <mxCell id="oj1FwXV7FWK7mrdtSQMY-40" value="mil-d-kv" style="image;aspect=fixed;html=1;points=[];align=center;fontSize=12;image=img/lib/azure2/security/Key_Vaults.svg;" vertex="1" parent="oj1FwXV7FWK7mrdtSQMY-1">
          <mxGeometry x="-170" y="52.04999999999999" width="60" height="60" as="geometry" />
        </mxCell>
        <mxCell id="oj1FwXV7FWK7mrdtSQMY-41" value="" style="endArrow=none;html=1;rounded=0;strokeWidth=2;" edge="1" parent="oj1FwXV7FWK7mrdtSQMY-1" source="oj1FwXV7FWK7mrdtSQMY-38" target="oj1FwXV7FWK7mrdtSQMY-40">
          <mxGeometry width="50" height="50" relative="1" as="geometry">
            <mxPoint x="-100" y="265" as="sourcePoint" />
            <mxPoint x="40" y="265" as="targetPoint" />
          </mxGeometry>
        </mxCell>
        <mxCell id="oj1FwXV7FWK7mrdtSQMY-42" value="mil-d-cosmos" style="image;aspect=fixed;html=1;points=[];align=center;fontSize=10;image=img/lib/azure2/databases/Azure_Cosmos_DB.svg;" vertex="1" parent="oj1FwXV7FWK7mrdtSQMY-1">
          <mxGeometry x="615" y="516" width="30" height="30" as="geometry" />
        </mxCell>
        <mxCell id="oj1FwXV7FWK7mrdtSQMY-43" value="mildconfst" style="image;aspect=fixed;html=1;points=[];align=center;fontSize=10;image=img/lib/azure2/storage/Storage_Accounts.svg;" vertex="1" parent="oj1FwXV7FWK7mrdtSQMY-1">
          <mxGeometry x="265" y="699" width="30" height="24" as="geometry" />
        </mxCell>
        <mxCell id="oj1FwXV7FWK7mrdtSQMY-44" value="mil-d-cae" style="image;aspect=fixed;html=1;points=[];align=center;fontSize=10;image=img/lib/azure2/other/Container_App_Environments.svg;" vertex="1" parent="oj1FwXV7FWK7mrdtSQMY-1">
          <mxGeometry x="753" y="293" width="34" height="34" as="geometry" />
        </mxCell>
      </root>
    </mxGraphModel>
  </diagram>
</mxfile>
